<?xml version="1.0" standalone="no"?>
<!DOCTYPE svg PUBLIC "-//W3C//DTD SVG 20010904//EN"
 "http://www.w3.org/TR/2001/REC-SVG-20010904/DTD/svg10.dtd">
<svg version="1.0" xmlns="http://www.w3.org/2000/svg"
 width="200.000000pt" height="200.000000pt" viewBox="0 0 200.000000 200.000000"
 preserveAspectRatio="xMidYMid meet">

<g transform="translate(0.000000,200.000000) scale(0.100000,-0.100000)"
fill="#000000" stroke="none">
<path d="M590 1738 c-77 -30 -159 -114 -190 -193 -64 -170 7 -360 167 -440 53
-27 67 -30 158 -30 136 1 170 18 297 149 53 55 95 103 92 107 -2 4 3 12 11 19
8 7 15 9 15 5 0 -4 7 -1 16 6 14 12 12 15 -22 30 -27 12 -34 19 -24 23 66 25
180 62 184 59 4 -5 -50 -172 -59 -181 -3 -3 -10 9 -16 26 -6 18 -14 32 -18 32
-3 0 -51 -44 -105 -99 l-98 -99 46 -27 c127 -74 268 -73 380 4 187 129 204
393 36 545 -69 63 -121 80 -230 80 -128 0 -165 -19 -297 -149 l-103 -100 11
-43 c8 -31 9 -46 1 -54 -7 -7 -14 2 -23 31 -11 36 -14 40 -26 28 -12 -12 -12
-22 -3 -56 11 -41 7 -66 -10 -56 -4 3 -11 21 -15 41 -5 31 -8 35 -20 23 -11
-11 -12 -23 -3 -57 8 -31 8 -46 0 -54 -8 -8 -14 2 -23 35 -11 44 -13 46 -55
53 -24 3 -47 10 -50 15 -6 10 2 12 65 13 53 1 68 23 19 28 -50 5 -30 23 26 23
58 0 73 20 21 29 -51 10 -33 28 24 24 46 -3 46 -3 119 73 l72 76 -38 26 c-92
60 -228 75 -332 35z"/>
<path d="M1224 995 c-4 -9 -2 -21 4 -27 15 -15 44 -1 40 19 -4 23 -36 29 -44
8z"/>
<path d="M260 980 c0 -13 7 -20 20 -20 19 0 20 -7 20 -141 0 -132 -1 -141 -20
-146 -11 -3 -20 -12 -20 -19 0 -10 15 -14 55 -14 42 0 55 3 55 15 0 8 -7 15
-15 15 -13 0 -15 23 -15 145 0 122 2 145 15 145 8 0 15 9 15 20 0 18 -7 20
-55 20 -48 0 -55 -2 -55 -20z"/>
<path d="M496 879 c-21 -17 -26 -18 -26 -5 0 9 -8 16 -20 16 -19 0 -20 -7 -20
-125 0 -118 1 -125 20 -125 19 0 20 7 20 89 0 101 15 134 63 134 50 0 57 -16
57 -124 0 -99 0 -99 25 -99 25 0 25 1 25 78 0 42 -5 94 -10 114 -19 66 -82 88
-134 47z"/>
<path d="M750 893 c-31 -12 -50 -37 -50 -68 0 -36 13 -51 74 -80 32 -16 41
-26 41 -45 0 -22 -5 -25 -43 -28 -24 -2 -50 2 -58 9 -11 9 -14 7 -14 -14 0
-22 6 -27 35 -33 71 -13 125 18 125 71 0 36 -13 51 -74 80 -32 16 -41 26 -41
45 0 23 3 25 53 25 42 0 52 3 52 16 0 26 -56 38 -100 22z"/>
<path d="M996 879 c-21 -17 -26 -18 -26 -5 0 9 -8 16 -20 16 -19 0 -20 -7 -20
-185 0 -178 1 -185 20 -185 18 0 20 7 20 69 l0 70 28 -15 c45 -23 80 -18 117
19 57 57 59 154 5 209 -35 35 -85 38 -124 7z m96 -37 c38 -32 30 -140 -12
-162 -33 -18 -78 -12 -94 12 -16 23 -22 102 -10 133 8 21 62 45 83 37 9 -3 24
-12 33 -20z"/>
<path d="M1412 880 c-17 -17 -22 -18 -22 -5 0 8 -9 15 -20 15 -19 0 -20 -7
-20 -125 0 -118 1 -125 20 -125 19 0 20 7 20 90 0 100 15 130 66 130 19 0 25
5 22 18 -5 25 -40 26 -66 2z"/>
<path d="M1559 885 c-40 -22 -62 -77 -57 -141 5 -64 34 -100 86 -110 49 -9
112 11 112 37 0 16 -3 18 -19 9 -11 -5 -38 -10 -60 -10 -31 0 -44 6 -61 27
-36 46 -25 58 60 59 41 1 81 2 89 3 10 1 12 11 7 44 -12 80 -88 119 -157 82z
m99 -39 c5 -6 12 -21 15 -33 5 -22 3 -23 -64 -23 -38 0 -69 3 -69 8 0 16 33
54 53 61 25 9 53 4 65 -13z"/>
<path d="M1220 765 c0 -118 1 -125 20 -125 19 0 20 7 20 125 0 118 -1 125 -20
125 -19 0 -20 -7 -20 -125z"/>
<path d="M1283 480 c0 -30 2 -43 4 -27 2 15 2 39 0 55 -2 15 -4 2 -4 -28z"/>
<path d="M603 475 c0 -27 2 -38 4 -22 2 15 2 37 0 50 -2 12 -4 0 -4 -28z"/>
<path d="M395 489 c-11 -16 -1 -19 13 -3 7 8 8 14 3 14 -5 0 -13 -5 -16 -11z"/>
<path d="M474 489 c-3 -6 4 -21 17 -33 l23 -21 -19 23 c-16 20 -17 25 -5 32 9
6 10 10 3 10 -6 0 -15 -5 -19 -11z"/>
<path d="M540 496 c0 -2 9 -6 20 -9 11 -3 18 -1 14 4 -5 9 -34 13 -34 5z"/>
<path d="M700 489 c0 -5 5 -7 10 -4 6 3 10 8 10 11 0 2 -4 4 -10 4 -5 0 -10
-5 -10 -11z"/>
<path d="M863 493 c-7 -2 -12 -19 -12 -36 l1 -32 7 30 c3 17 13 30 21 30 8 0
18 -13 21 -30 6 -28 7 -28 8 -4 0 14 -4 30 -11 37 -13 13 -16 13 -35 5z"/>
<path d="M1110 496 c0 -2 7 -7 16 -10 8 -3 12 -2 9 4 -6 10 -25 14 -25 6z"/>
<path d="M1226 491 c-3 -5 3 -7 14 -4 11 3 20 0 20 -6 0 -6 -11 -11 -25 -11
-14 0 -25 -4 -25 -8 0 -5 14 -7 31 -4 21 3 29 9 27 21 -4 18 -33 27 -42 12z"/>
<path d="M1312 488 c-7 -7 -12 -19 -11 -27 0 -10 4 -7 9 7 5 12 16 22 25 22 9
0 20 -10 25 -22 5 -14 9 -17 9 -7 1 17 -18 39 -34 39 -6 0 -16 -5 -23 -12z"/>
<path d="M1478 493 c6 -3 12 -14 13 -26 0 -21 1 -21 10 2 6 16 14 21 26 17 10
-4 14 -4 10 1 -5 4 -23 8 -40 9 -18 1 -26 -1 -19 -3z"/>
<path d="M1567 493 c-3 -5 5 -8 18 -8 13 0 21 3 18 8 -2 4 -10 7 -18 7 -8 0
-16 -3 -18 -7z"/>
<path d="M1636 491 c-3 -5 2 -7 13 -4 16 4 20 -1 24 -29 l5 -33 -2 35 c-1 34
-26 54 -40 31z"/>
<path d="M672 460 c0 -19 2 -27 5 -17 2 9 2 25 0 35 -3 9 -5 1 -5 -18z"/>
<path d="M742 460 c0 -19 2 -27 5 -17 2 9 2 25 0 35 -3 9 -5 1 -5 -18z"/>
<path d="M1156 477 c3 -10 9 -15 12 -12 3 3 0 11 -7 18 -10 9 -11 8 -5 -6z"/>
<path d="M1452 460 c0 -19 2 -27 5 -17 2 9 2 25 0 35 -3 9 -5 1 -5 -18z"/>
<path d="M358 457 c-3 -19 -2 -25 4 -19 6 6 8 18 6 28 -3 14 -5 12 -10 -9z"/>
<path d="M520 461 c0 -11 4 -22 9 -25 4 -3 6 6 3 19 -5 30 -12 33 -12 6z"/>
<path d="M1090 459 c0 -10 4 -21 10 -24 5 -3 7 0 4 9 -4 10 2 16 18 18 22 3
21 4 -4 9 -22 5 -28 3 -28 -12z"/>
<path d="M1431 464 c0 -11 3 -14 6 -6 3 7 2 16 -1 19 -3 4 -6 -2 -5 -13z"/>
<path d="M1573 463 c9 -2 23 -2 30 0 6 3 -1 5 -18 5 -16 0 -22 -2 -12 -5z"/>
<path d="M770 451 c0 -6 4 -13 10 -16 6 -3 7 1 4 9 -7 18 -14 21 -14 7z"/>
<path d="M1380 440 c0 -5 5 -10 11 -10 5 0 7 5 4 10 -3 6 -8 10 -11 10 -2 0
-4 -4 -4 -10z"/>
</g>
</svg>
